<svg id="visual" viewBox="0 0 900 600" width="900" height="600" xmlns="http://www.w3.org/2000/svg" xmlns:xlink="http://www.w3.org/1999/xlink" version="1.1"><rect x="0" y="0" width="900" height="600" fill="#FAF9F9"></rect><defs><linearGradient id="grad1_0" x1="33.3%" y1="0%" x2="100%" y2="100%"><stop offset="20%" stop-color="#faf9f9" stop-opacity="1"></stop><stop offset="80%" stop-color="#faf9f9" stop-opacity="1"></stop></linearGradient></defs><defs><linearGradient id="grad2_0" x1="0%" y1="0%" x2="66.7%" y2="100%"><stop offset="20%" stop-color="#faf9f9" stop-opacity="1"></stop><stop offset="80%" stop-color="#faf9f9" stop-opacity="1"></stop></linearGradient></defs><g transform="translate(900, 0)"><path d="M0 270.4C-27.9 250.3 -55.7 230.2 -91.5 220.8C-127.2 211.4 -170.8 212.6 -191.2 191.2C-211.6 169.9 -208.7 125.9 -218 90.3C-227.4 54.7 -248.9 27.3 -270.4 0L0 0Z" fill="#F5CB5C"></path></g><g transform="translate(0, 600)"><path d="M0 -270.4C30.2 -252.2 60.3 -234.1 91.8 -221.7C123.4 -209.4 156.3 -202.8 184.6 -184.6C212.8 -166.3 236.3 -136.2 249.8 -103.5C263.4 -70.8 266.9 -35.4 270.4 0L0 0Z" fill="#F5CB5C"></path></g></svg>