<?xml version="1.0" encoding="UTF-8" standalone="no"?><!DOCTYPE svg PUBLIC "-//W3C//DTD SVG 1.1//EN" "http://www.w3.org/Graphics/SVG/1.1/DTD/svg11.dtd"><svg width="100%" height="100%" viewBox="0 0 1182 1182" version="1.1" xmlns="http://www.w3.org/2000/svg" xmlns:xlink="http://www.w3.org/1999/xlink" xml:space="preserve" xmlns:serif="http://www.serif.com/" style="fill-rule:evenodd;clip-rule:evenodd;stroke-linejoin:round;stroke-miterlimit:2;"><path d="M257.359,860.751l-55.321,4.254l-40.067,36.879l-11.35,38.3l6.383,29.433l21.988,33.688l28.012,21.983l19.859,5.321l21.987,-1.067l8.509,-168.791Z" style="fill:#c5a897;fill-rule:nonzero;"/><path d="M895.3,1025.29l-672.654,0c0,0 -31.246,-24.821 -31.246,-80.141c0,-55.321 31.246,-80.142 31.246,-80.142l672.654,-0c0,-0 -7.204,4.804 -14.879,15.862l-31.675,8.209l22.438,8.7c-2.113,5.016 -4.009,10.671 -5.5,16.996l-15,3.891l13.483,3.617c-1.163,6.9 -1.846,14.512 -1.846,22.867c0,25.558 6.371,44.129 13.508,56.92l-14.925,6.146l21.809,4.354c6.758,8.834 12.587,12.721 12.587,12.721Z" style="fill:#fbe6d4;fill-rule:nonzero;"/><path d="M895.3,865.005c0,-0 -10.616,9.029 -14.879,15.862l-31.675,8.209l-586.367,0.708c-21.541,0.029 -42.12,8.917 -56.908,24.579l-12.917,13.684c0,-0 3.28,-36.446 33.067,-68.713l669.679,0l0,5.671Z" style="fill:#ead2c2;fill-rule:nonzero;"/><path d="M222.642,1023.8l-0.063,-0.063c-1.558,-1.558 -29.112,-29.946 -29.095,-78.587c-0,-25.121 7.32,-44.805 14.637,-58.221c3.658,-6.709 7.317,-11.842 10.046,-15.284c1.362,-1.725 2.496,-3.025 3.283,-3.887c0.392,-0.429 0.696,-0.75 0.9,-0.963l0.229,-0.233l0.063,-0.062c0.825,-0.805 0.842,-2.125 0.037,-2.946c-0.804,-0.825 -2.125,-0.842 -2.945,-0.038c-0.192,0.196 -30.396,29.713 -30.417,81.634c0.021,51.92 30.225,81.437 30.417,81.633c0.82,0.804 2.141,0.787 2.945,-0.038c0.805,-0.82 0.788,-2.141 -0.037,-2.945Z" style="fill:#f4ae52;fill-rule:nonzero;"/><path d="M241.571,1025.29c-45.229,0 -81.712,-37.471 -80.092,-83.062c1.546,-43.429 38.555,-77.221 82.013,-77.221l674.15,-0c3.721,-0 6.742,-3.017 6.742,-6.738c-0,-3.72 -3.021,-6.737 -6.742,-6.737l-678.25,-0c-50.763,-0 -94,39.471 -95.804,90.204c-1.892,53.258 40.721,97.029 93.558,97.029l680.496,0c3.721,0 6.742,-3.012 6.742,-6.737c-0,-3.721 -3.021,-6.738 -6.742,-6.738l-676.071,0Z" style="fill:#0d1b2a;fill-rule:nonzero;"/><path d="M525.442,1010.04l292.554,0l-52.125,-9.575l-240.429,9.575Z" style="fill:#ead2c2;fill-rule:nonzero;"/><path d="M241.4,993.022l292.554,-0l-52.129,-10.642l-240.425,10.642Z" style="fill:#ead2c2;fill-rule:nonzero;"/><path d="M230.763,953.655l148.937,-0l-110.637,-8.508l-38.3,8.508Z" style="fill:#ead2c2;fill-rule:nonzero;"/><path d="M487.146,928.047l323.404,-0l-103.191,-7.371l-220.213,7.371Z" style="fill:#ead2c2;fill-rule:nonzero;"/><path d="M617.996,973.872l45.746,-0l-22.871,-4.255l-22.875,4.255Z" style="fill:#ead2c2;fill-rule:nonzero;"/><path d="M364.804,916.426l45.746,-0l-22.871,-4.259l-22.875,4.259Z" style="fill:#ead2c2;fill-rule:nonzero;"/><path d="M368.321,299.047l-55.317,4.258l-40.07,36.875l-11.35,38.3l6.387,29.429l21.983,33.692l28.017,21.983l19.854,5.321l21.988,-1.063l8.508,-168.795Z" style="fill:#c5a897;fill-rule:nonzero;"/><path d="M864.246,463.584l-530.637,0c-0,0 -31.242,-24.821 -31.242,-80.142c-0,-55.316 31.242,-80.137 31.242,-80.137l530.637,-0c0,-0 -7.208,4.8 -14.883,15.858l-31.675,8.209l22.437,8.704c-2.108,5.012 -4.008,10.666 -5.496,16.996l-15,3.887l13.484,3.617c-1.167,6.904 -1.846,14.512 -1.846,22.866c-0,25.559 6.367,44.13 13.508,56.921l-14.929,6.146l21.808,4.358c6.759,8.83 12.592,12.717 12.592,12.717Z" style="fill:#fbe6d4;fill-rule:nonzero;"/><path d="M864.246,303.305c0,-0 -10.617,9.029 -14.883,15.858l-31.675,8.209l-444.346,0.712c-21.538,0.025 -42.121,8.913 -56.908,24.575l-12.917,13.683c-0,0 3.279,-36.445 33.067,-68.712l527.662,-0l0,5.675Z" style="fill:#ead2c2;fill-rule:nonzero;"/><path d="M333.609,462.097l-0.063,-0.067c-1.558,-1.554 -29.112,-29.946 -29.096,-78.588c0,-25.12 7.321,-44.804 14.638,-58.22c3.658,-6.705 7.316,-11.842 10.046,-15.284c1.362,-1.721 2.495,-3.021 3.279,-3.883c0.396,-0.433 0.7,-0.754 0.904,-0.963l0.229,-0.233l0.063,-0.067c0.825,-0.804 0.841,-2.12 0.037,-2.945c-0.804,-0.821 -2.125,-0.838 -2.946,-0.034c-0.191,0.192 -30.396,29.709 -30.416,81.629c0.02,51.921 30.225,81.442 30.416,81.634c0.821,0.804 2.142,0.787 2.946,-0.034c0.804,-0.825 0.788,-2.145 -0.037,-2.945Z" style="fill:#f4ae52;fill-rule:nonzero;"/><path d="M352.534,463.584c-45.23,0 -81.709,-37.471 -80.088,-83.063c1.542,-43.429 38.554,-77.216 82.008,-77.216l532.13,-0c3.725,-0 6.737,-3.021 6.737,-6.742c0,-3.721 -3.012,-6.737 -6.737,-6.737l-536.23,-0c-50.762,-0 -93.995,39.475 -95.8,90.204c-1.895,53.258 40.721,97.033 93.555,97.033l538.475,0c3.725,0 6.737,-3.016 6.737,-6.737c0,-3.725 -3.012,-6.742 -6.737,-6.742l-534.05,0Z" style="fill:#4ab0cb;fill-rule:nonzero;"/><path d="M636.409,448.338l150.529,0l-52.125,-9.575l-98.404,9.575Z" style="fill:#ead2c2;fill-rule:nonzero;"/><path d="M352.367,431.317l292.55,0l-52.125,-10.641l-240.425,10.641Z" style="fill:#ead2c2;fill-rule:nonzero;"/><path d="M341.729,391.955l148.934,-0l-110.638,-8.513l-38.296,8.513Z" style="fill:#ead2c2;fill-rule:nonzero;"/><path d="M598.109,366.342l181.383,0l38.829,-7.366l-220.212,7.366Z" style="fill:#ead2c2;fill-rule:nonzero;"/><path d="M728.959,412.167l45.749,0l-22.874,-4.258l-22.875,4.258Z" style="fill:#ead2c2;fill-rule:nonzero;"/><path d="M475.771,354.722l45.746,-0l-22.875,-4.259l-22.871,4.259Z" style="fill:#ead2c2;fill-rule:nonzero;"/><path d="M227.925,116.067l460.371,0l0,-13.47l-460.371,-0c-3.721,-0 -6.737,3.012 -6.737,6.733c-0,3.721 3.016,6.737 6.737,6.737Z" style="fill:#6ac393;fill-rule:nonzero;"/><path d="M688.296,116.067l-460.371,0c-3.721,0 -6.737,-3.016 -6.737,-6.737c-0,-3.721 3.016,-6.733 6.737,-6.733l460.371,-0l0,13.47Z" style="fill:#49a970;fill-rule:nonzero;"/><path d="M227.925,289.826l460.371,-0l0,-13.475l-460.371,-0c-3.721,-0 -6.737,3.016 -6.737,6.737c-0,3.721 3.016,6.738 6.737,6.738Z" style="fill:#6ac393;fill-rule:nonzero;"/><path d="M688.296,289.826l-460.371,-0c-3.721,-0 -6.737,-3.017 -6.737,-6.738c-0,-3.721 3.016,-6.737 6.737,-6.737l460.371,-0l0,13.475Z" style="fill:#49a970;fill-rule:nonzero;"/><path d="M251.138,276.351l562.512,-0l0,-160.284l-562.512,0c-0,0 11.771,13.909 20.104,36.371l30.354,5.792l-26.854,5c2.237,8.041 3.879,16.883 4.412,26.354l18.542,3.521c0,-0 -18.354,3.637 -18.35,3.104c0,46.808 -28.208,80.142 -28.208,80.142Z" style="fill:#ead2c2;fill-rule:nonzero;"/><path d="M922.467,111.813l55.321,4.254l40.066,36.88l11.35,38.295l-6.379,29.434l-21.991,33.687l-28.009,21.988l-19.862,5.32l-21.984,-1.066l-8.512,-168.792Z" style="fill:#c5a897;fill-rule:nonzero;"/><path d="M698.813,276.351l258.366,-0c0,-0 31.246,-24.821 31.246,-80.142c0,-55.317 -31.246,-80.142 -31.246,-80.142l-258.366,0c-0,0 7.204,4.805 14.879,15.867l31.675,8.204l-22.438,8.7c2.113,5.017 4.009,10.667 5.5,17l15,3.888l-13.483,3.616c1.163,6.905 1.846,14.513 1.846,22.867c-0,25.558 -6.371,44.129 -13.508,56.921l14.925,6.146l-21.809,4.358c-6.758,8.829 -12.587,12.717 -12.587,12.717Z" style="fill:#fbe6d4;fill-rule:nonzero;"/><path d="M698.813,116.067c-0,0 10.616,9.03 14.879,15.867l31.675,8.204l172.083,0.713c21.534,0.029 42.117,8.912 56.904,24.575l12.917,13.683c0,0 -3.279,-36.446 -33.067,-68.712l-255.391,-0l-0,5.67Z" style="fill:#ead2c2;fill-rule:nonzero;"/><path d="M960.096,277.842c0.188,-0.195 30.392,-29.712 30.413,-81.633c-0.021,-51.921 -30.225,-81.438 -30.413,-81.629c-0.825,-0.804 -2.146,-0.788 -2.95,0.033c-0.8,0.825 -0.787,2.142 0.038,2.946l0.066,0.067c1.554,1.554 29.109,29.941 29.092,78.583c-0.004,25.121 -7.325,44.804 -14.638,58.221c-3.658,6.708 -7.316,11.842 -10.045,15.287c-1.363,1.721 -2.496,3.021 -3.28,3.884c-0.395,0.429 -0.7,0.754 -0.904,0.962l-0.225,0.234l-0.066,0.062c-0.825,0.804 -0.838,2.125 -0.038,2.95c0.804,0.821 2.125,0.838 2.95,0.033Z" style="fill:#f4ae52;fill-rule:nonzero;"/><path d="M938.254,276.351c45.23,-0 81.713,-37.471 80.088,-83.063c-1.542,-43.429 -38.554,-77.221 -82.008,-77.221l-259.863,0c-3.721,0 -6.742,-3.016 -6.742,-6.737c0,-3.721 3.021,-6.733 6.742,-6.733l263.963,-0c50.766,-0 94,39.47 95.8,90.2c1.895,53.258 -40.717,97.029 -93.555,97.029l-266.208,-0c-3.721,-0 -6.742,-3.017 -6.742,-6.738c0,-3.721 3.021,-6.737 6.742,-6.737l261.783,-0Z" style="fill:#6ac393;fill-rule:nonzero;"/><path d="M949.063,204.717l-148.938,0l110.638,-8.508l38.3,8.508Z" style="fill:#ead2c2;fill-rule:nonzero;"/><path d="M815.021,167.484l-45.746,-0l22.871,-4.254l22.875,4.254Z" style="fill:#ead2c2;fill-rule:nonzero;"/><path d="M883.104,247.272l-128.887,-0l64.446,-4.255l64.441,4.255Z" style="fill:#ead2c2;fill-rule:nonzero;"/><path d="M334.396,170.68l216.313,-0l-200.709,-5.321l-15.604,5.321Z" style="fill:#fbe6d4;fill-rule:nonzero;"/><path d="M395.746,245.147l285.075,-0l-31.887,-11.346l-253.188,11.346Z" style="fill:#fbe6d4;fill-rule:nonzero;"/><path d="M310.992,220.321l68.087,0l-58.866,-7.091l-9.221,7.091Z" style="fill:#fbe6d4;fill-rule:nonzero;"/><path d="M603.192,149.401l70.921,-0l-48.05,-4.646l-22.871,4.646Z" style="fill:#fbe6d4;fill-rule:nonzero;"/><path d="M1055.59,851.53l-235.754,-0l-0,-187.233l235.754,-0c51.7,-0 93.616,41.912 93.616,93.616c0,51.704 -41.916,93.617 -93.616,93.617Z" style="fill:#cb4a87;fill-rule:nonzero;"/><path d="M801.863,673.517l55.321,4.255l40.07,36.879l11.346,38.3l-6.383,29.429l-21.983,33.687l-28.017,21.988l-19.858,5.321l-21.988,-1.067l-8.508,-168.792Z" style="fill:#c5a897;fill-rule:nonzero;"/><path d="M295.021,838.055l541.554,-0c0,-0 31.242,-24.825 31.242,-80.142c-0,-55.321 -31.242,-80.141 -31.242,-80.141l-541.554,-0c0,-0 7.208,4.804 14.883,15.862l31.675,8.208l-22.437,8.7c2.112,5.017 4.008,10.667 5.5,16.996l14.996,3.892l-13.484,3.616c1.167,6.901 1.846,14.513 1.846,22.867c0,25.559 -6.371,44.129 -13.508,56.917l14.929,6.15l-21.808,4.358c-6.759,8.829 -12.592,12.717 -12.592,12.717Z" style="fill:#fbe6d4;fill-rule:nonzero;"/><path d="M295.021,677.772c0,-0 10.617,9.029 14.883,15.862l31.675,8.208l455.263,0.709c21.542,0.029 42.121,8.916 56.908,24.579l12.917,13.683c-0,0 -3.279,-36.446 -33.067,-68.716l-538.579,-0l0,5.675Z" style="fill:#ead2c2;fill-rule:nonzero;"/><path d="M839.488,839.547c0.191,-0.192 30.391,-29.713 30.412,-81.634c-0.021,-51.921 -30.221,-81.437 -30.412,-81.633c-0.821,-0.804 -2.142,-0.788 -2.946,0.037c-0.804,0.821 -0.788,2.142 0.037,2.946l0.063,0.063c1.558,1.558 29.112,29.946 29.092,78.587c-0,25.121 -7.321,44.809 -14.638,58.225c-3.658,6.704 -7.312,11.838 -10.042,15.284c-1.362,1.72 -2.495,3.02 -3.283,3.883c-0.392,0.429 -0.696,0.754 -0.9,0.962l-0.229,0.234l-0.063,0.066c-0.825,0.8 -0.841,2.121 -0.037,2.946c0.804,0.821 2.125,0.838 2.946,0.034Z" style="fill:#f4ae52;fill-rule:nonzero;"/><path d="M817.65,838.055c45.234,-0 81.713,-37.471 80.088,-83.063c-1.542,-43.429 -38.554,-77.22 -82.009,-77.22l-543.05,-0c-3.72,-0 -6.733,-3.017 -6.733,-6.738c0,-3.721 3.013,-6.737 6.733,-6.737l547.155,-0c50.758,-0 93.991,39.47 95.8,90.204c1.891,53.258 -40.721,97.029 -93.559,97.029l-549.396,-0c-3.72,-0 -6.733,-3.017 -6.733,-6.738c0,-3.72 3.013,-6.737 6.733,-6.737l544.971,-0Z" style="fill:#cb4a87;fill-rule:nonzero;"/><path d="M533.775,822.805l-172.337,-0l52.125,-9.575l120.212,9.575Z" style="fill:#ead2c2;fill-rule:nonzero;"/><path d="M817.817,805.784l-292.55,0l52.129,-10.637l240.421,10.637Z" style="fill:#ead2c2;fill-rule:nonzero;"/><path d="M828.459,766.422l-148.938,-0l110.642,-8.509l38.296,8.509Z" style="fill:#ead2c2;fill-rule:nonzero;"/><path d="M623.671,750.03l-228.192,-0l103.192,-7.367l125,7.367Z" style="fill:#ead2c2;fill-rule:nonzero;"/><path d="M441.225,786.638l-45.746,0l22.871,-4.258l22.875,4.258Z" style="fill:#ead2c2;fill-rule:nonzero;"/><path d="M694.413,729.188l-45.742,0l22.871,-4.254l22.871,4.254Z" style="fill:#ead2c2;fill-rule:nonzero;"/><path d="M1059.74,851.53l-142.096,-0l137.946,-0c50.225,-0 91.212,-39.554 93.512,-89.213c-0.083,49.284 -40.058,89.213 -89.362,89.213Z" style="fill:#e2c7b2;fill-rule:nonzero;"/><path d="M1055.59,851.53l-221.9,-0c-0,-0 63.175,-2.988 78.983,-69.938c1.4,-5.37 2.338,-10.929 2.763,-16.629c0.091,-0.921 0.179,-1.854 0.258,-2.796l233.408,0l0,0.15c-2.3,49.659 -43.287,89.213 -93.512,89.213Z" style="fill:#be4068;fill-rule:nonzero;"/><path d="M912.671,781.592c1.221,-5.154 2.154,-10.691 2.763,-16.629c-0.425,5.7 -1.363,11.259 -2.763,16.629Z" style="fill:#be4068;fill-rule:nonzero;"/><path d="M191.3,664.297l102.85,-0l0,-187.234l-102.85,0c-51.704,0 -93.621,41.913 -93.621,93.613c0,51.708 41.917,93.621 93.621,93.621Z" style="fill:#e36843;fill-rule:nonzero;"/><path d="M312.117,486.28l-55.321,4.258l-40.067,36.879l-11.35,38.296l6.384,29.434l21.987,33.687l28.013,21.988l19.858,5.316l21.988,-1.062l8.508,-168.796Z" style="fill:#c5a897;fill-rule:nonzero;"/><path d="M986.079,650.822l-708.675,-0c0,-0 -31.245,-24.826 -31.245,-80.146c-0,-55.317 31.245,-80.138 31.245,-80.138l708.675,0c0,0 -7.204,4.8 -14.879,15.863l-31.675,8.204l22.438,8.704c-2.113,5.013 -4.009,10.667 -5.5,16.996l-15,3.887l13.487,3.617c-1.166,6.904 -1.846,14.517 -1.846,22.867c0,25.558 6.367,44.133 13.509,56.921l-14.929,6.15l21.808,4.354c6.758,8.829 12.587,12.721 12.587,12.721Z" style="fill:#fbe6d4;fill-rule:nonzero;"/><path d="M986.079,490.538c0,0 -10.612,9.029 -14.879,15.863l-31.675,8.204l-622.387,0.712c-21.542,0.029 -42.121,8.913 -56.909,24.579l-12.916,13.68c-0,-0 3.279,-36.446 33.066,-68.713l705.7,0l0,5.675Z" style="fill:#ead2c2;fill-rule:nonzero;"/><path d="M277.4,649.33l-0.062,-0.063c-1.559,-1.558 -29.113,-29.95 -29.096,-78.591c-0,-25.121 7.325,-44.805 14.642,-58.221c3.654,-6.704 7.312,-11.838 10.041,-15.284c1.363,-1.72 2.496,-3.02 3.284,-3.883c0.391,-0.433 0.695,-0.754 0.9,-0.962l0.229,-0.234l0.062,-0.066c0.825,-0.804 0.842,-2.121 0.038,-2.946c-0.804,-0.821 -2.125,-0.838 -2.946,-0.033c-0.192,0.191 -30.396,29.712 -30.417,81.629c0.021,51.921 30.225,81.441 30.417,81.637c0.821,0.8 2.142,0.788 2.946,-0.037c0.804,-0.825 0.787,-2.142 -0.038,-2.946Z" style="fill:#f4ae52;fill-rule:nonzero;"/><path d="M296.329,650.822c-45.229,-0 -81.712,-37.471 -80.087,-83.067c1.542,-43.429 38.55,-77.217 82.008,-77.217l710.175,0c3.717,0 6.738,-3.021 6.738,-6.741c-0,-3.721 -3.021,-6.734 -6.738,-6.734l-714.275,0c-50.762,0 -94,39.471 -95.8,90.2c-1.896,53.259 40.717,97.034 93.554,97.034l716.521,-0c3.717,-0 6.738,-3.017 6.738,-6.742c-0,-3.721 -3.021,-6.733 -6.738,-6.733l-712.096,-0Z" style="fill:#e36843;fill-rule:nonzero;"/><path d="M580.204,635.572l239.63,-0l-119.417,-9.576l-120.213,9.576Z" style="fill:#ead2c2;fill-rule:nonzero;"/><path d="M296.159,618.551l292.554,-0l-52.129,-10.638l-240.425,10.638Z" style="fill:#ead2c2;fill-rule:nonzero;"/><path d="M285.521,579.188l148.938,0l-110.638,-8.512l-38.3,8.512Z" style="fill:#ead2c2;fill-rule:nonzero;"/><path d="M793.35,612.167l148.938,0l-110.638,-8.512l-38.3,8.512Z" style="fill:#ead2c2;fill-rule:nonzero;"/><path d="M490.309,562.796l404.991,0l-279.991,-7.366l-125,7.366Z" style="fill:#ead2c2;fill-rule:nonzero;"/><path d="M672.75,599.401l45.75,-0l-22.875,-4.254l-22.875,4.254Z" style="fill:#ead2c2;fill-rule:nonzero;"/><path d="M419.563,541.955l45.746,-0l-22.871,-4.254l-22.875,4.254Z" style="fill:#ead2c2;fill-rule:nonzero;"/><path d="M272.679,664.297l-85.533,-0c-49.308,-0 -89.283,-39.93 -89.362,-89.213c2.3,49.658 43.287,89.213 93.516,89.213l81.379,-0Z" style="fill:#e2c7b2;fill-rule:nonzero;"/><path d="M280.292,664.297l-88.992,-0c-50.229,-0 -91.216,-39.555 -93.516,-89.213l-0,-0.15l100.504,0c0.083,0.992 0.171,1.975 0.271,2.942c0.425,5.596 1.345,11.054 2.712,16.329c15.75,67.096 79.021,70.092 79.021,70.092Z" style="fill:#d35a3c;fill-rule:nonzero;"/><path d="M201.271,594.205c-1.367,-5.275 -2.287,-10.733 -2.712,-16.329c0.6,5.829 1.52,11.258 2.712,16.329Z" style="fill:#d35a3c;fill-rule:nonzero;"/></svg>